<?xml version="1.0" encoding="UTF-8"?>
<svg xmlns="http://www.w3.org/2000/svg" xmlns:xlink="http://www.w3.org/1999/xlink" width="40px" height="40px" viewBox="0 0 40 40" version="1.1">
<g id="surface1">
<path style=" stroke:none;fill-rule:nonzero;fill:rgb(17.254902%,71.764706%,25.882353%);fill-opacity:1;" d="M 0 40 L 3.441406 29.679688 C 1.695312 26.746094 0.691406 23.320312 0.691406 19.65625 C 0.691406 8.800781 9.488281 0 20.34375 0 C 31.199219 0 40 8.800781 40 19.65625 C 40 30.511719 31.199219 39.308594 20.34375 39.308594 C 17.042969 39.308594 13.933594 38.492188 11.199219 37.054688 Z M 0 40 "/>
<path style=" stroke:none;fill-rule:nonzero;fill:rgb(100%,100%,100%);fill-opacity:1;" d="M 32.886719 26.195312 C 31.976562 24.480469 28.628906 22.519531 28.628906 22.519531 C 27.875 22.089844 26.960938 22.039062 26.527344 22.808594 C 26.527344 22.808594 25.441406 24.113281 25.164062 24.300781 C 23.898438 25.15625 22.730469 25.125 21.546875 23.941406 L 18.804688 21.195312 L 16.058594 18.453125 C 14.875 17.269531 14.84375 16.101562 15.699219 14.835938 C 15.886719 14.558594 17.191406 13.472656 17.191406 13.472656 C 17.960938 13.039062 17.910156 12.125 17.480469 11.371094 C 17.480469 11.371094 15.519531 8.023438 13.804688 7.113281 C 13.074219 6.730469 12.179688 6.863281 11.59375 7.449219 L 10.382812 8.660156 C 6.535156 12.507812 8.429688 16.847656 12.277344 20.695312 L 15.792969 24.210938 L 19.304688 27.726562 C 23.152344 31.570312 27.496094 33.464844 31.339844 29.617188 L 32.554688 28.40625 C 33.136719 27.820312 33.269531 26.925781 32.886719 26.195312 Z M 32.886719 26.195312 "/>
</g>
</svg>
